<?xml version="1.0" encoding="UTF-8" standalone="no"?>
<!DOCTYPE svg PUBLIC "-//W3C//DTD SVG 1.1//EN" "http://www.w3.org/Graphics/SVG/1.1/DTD/svg11.dtd">
<svg width="100%" height="100%" viewBox="0 0 554 218" version="1.1" xmlns="http://www.w3.org/2000/svg" xmlns:xlink="http://www.w3.org/1999/xlink" xml:space="preserve" xmlns:serif="http://www.serif.com/" style="fill-rule:evenodd;clip-rule:evenodd;stroke-linejoin:round;stroke-miterlimit:2;">
    <g transform="matrix(1,0,0,1,-265.398,-257.378)">
        <g transform="matrix(0.346021,0,0,0.346021,127.921,234.179)">
            <g transform="matrix(1.60265,0,0,-1.60265,356.057,701.374)">
                <g transform="matrix(-0.866,-0.5,0.5,-0.866,163.32,363.314)">
                    <g>
                        <rect x="122" y="-0.4" width="16.6" height="320.3" style="fill:url(#_Linear1);"/>
                    </g>
                </g>
                <g>
                    <g>
                        <rect x="39.8" y="272.2" width="320.3" height="16.6" style="fill:url(#_Linear2);"/>
                    </g>
                </g>
                <g transform="matrix(-0.866,-0.5,0.5,-0.866,83.0693,663.341)">
                    <g>
                        <rect x="37.9" y="312.2" width="185" height="16.6" style="fill:url(#_Linear3);"/>
                    </g>
                </g>
                <g transform="matrix(-0.866,-0.5,0.5,-0.866,463.341,283.069)">
                    <g>
                        <rect x="177.1" y="71.1" width="185" height="16.6" style="fill:url(#_Linear4);"/>
                    </g>
                </g>
                <g transform="matrix(-0.5,-0.866,0.866,-0.5,126.79,232.122)">
                    <g>
                        <rect x="122.1" y="-13" width="16.6" height="185" style="fill:url(#_Linear5);"/>
                    </g>
                </g>
                <g transform="matrix(-0.5,-0.866,0.866,-0.5,266.083,473.377)">
                    <g>
                        <rect x="109.6" y="151.6" width="320.3" height="16.6" style="fill:url(#_Linear6);"/>
                    </g>
                </g>
                <g>
                    <g>
                        <rect x="52.5" y="107.5" width="16.6" height="185" style="fill:url(#_Linear7);"/>
                    </g>
                </g>
                <g>
                    <g>
                        <rect x="330.9" y="107.5" width="16.6" height="185" style="fill:url(#_Linear8);"/>
                    </g>
                </g>
                <g transform="matrix(-0.5,-0.866,0.866,-0.5,126.795,714.288)">
                    <g>
                        <rect x="262.4" y="240.1" width="14.5" height="160.9" style="fill:url(#_Linear9);"/>
                    </g>
                </g>
                <path d="M369.5,297.9C359.9,314.6 338.5,320.3 321.8,310.7C305.1,301.1 299.4,279.7 309,263C318.6,246.3 340,240.6 356.7,250.2C373.5,259.9 379.2,281.2 369.5,297.9" style="fill:url(#_Linear10);fill-rule:nonzero;"/>
                <path d="M90.9,137C81.3,153.7 59.9,159.4 43.2,149.8C26.5,140.2 20.8,118.8 30.4,102.1C40,85.4 61.4,79.7 78.1,89.3C94.8,99 100.5,120.3 90.9,137" style="fill:url(#_Linear11);fill-rule:nonzero;"/>
                <path d="M30.5,297.9C20.9,281.2 26.6,259.9 43.3,250.2C60,240.6 81.3,246.3 91,263C100.6,279.7 94.9,301 78.2,310.7C61.4,320.3 40.1,314.6 30.5,297.9" style="fill:url(#_Linear12);fill-rule:nonzero;"/>
                <path d="M309.1,137C299.5,120.3 305.2,99 321.9,89.3C338.6,79.7 359.9,85.4 369.6,102.1C379.2,118.8 373.5,140.1 356.8,149.8C340.1,159.4 318.7,153.7 309.1,137" style="fill:url(#_Linear13);fill-rule:nonzero;"/>
                <path d="M200,395.8C180.7,395.8 165.1,380.2 165.1,360.9C165.1,341.6 180.7,326 200,326C219.3,326 234.9,341.6 234.9,360.9C234.9,380.1 219.3,395.8 200,395.8" style="fill:url(#_Linear14);fill-rule:nonzero;"/>
                <path d="M200,74C180.7,74 165.1,58.4 165.1,39.1C165.1,19.8 180.7,4.2 200,4.2C219.3,4.2 234.9,19.8 234.9,39.1C234.9,58.4 219.3,74 200,74" style="fill:url(#_Linear15);fill-rule:nonzero;"/>
                <g transform="matrix(0.638515,0,0,-0.638515,69.0466,306.602)">
                    <path d="M399.641,59.525L215.643,388.545C211.844,395.338 202.084,395.378 198.228,388.618L10.582,59.556C6.381,52.19 12.68,43.267 21.028,44.759L389.119,44.806C397.439,43.289 403.768,52.143 399.641,59.525Z" style="fill:url(#_Linear16);fill-rule:nonzero;"/>
                </g>
            </g>
            <g transform="matrix(1.02332,0,0,1.02332,466.715,209.997)">
                <path d="M292.965,1.574L156.801,28.255C154.563,28.694 152.906,30.59 152.771,32.866L144.395,174.33C144.198,177.662 147.258,180.248 150.51,179.498L188.42,170.749C191.967,169.931 195.172,173.055 194.443,176.622L183.18,231.775C182.422,235.487 185.907,238.661 189.532,237.56L212.947,230.446C216.577,229.344 220.065,232.527 219.297,236.242L201.398,322.875C200.278,328.294 207.486,331.249 210.492,326.603L212.5,323.5L323.454,102.072C325.312,98.365 322.108,94.137 318.036,94.923L279.014,102.454C275.347,103.161 272.227,99.746 273.262,96.158L298.731,7.867C299.767,4.273 296.636,0.855 292.965,1.574Z" style="fill:url(#_Linear17);fill-rule:nonzero;"/>
            </g>
        </g>
        <g transform="matrix(1.05716,0,0,1.05716,-47.4353,-26.9841)">
            <path d="M545.478,423.306C543.644,423.306 542.187,422.82 541.108,421.849C540.029,420.878 539.274,419.745 538.842,418.45L505.823,314.861C505.607,314.322 505.499,313.836 505.499,313.405C505.499,312.541 505.85,311.759 506.551,311.058C507.253,310.356 508.089,310.006 509.06,310.006L529.13,310.006C530.857,310.006 532.206,310.491 533.177,311.462C534.148,312.434 534.742,313.351 534.957,314.214L557.941,388.992L580.763,314.214C581.087,313.351 581.707,312.434 582.624,311.462C583.541,310.491 584.863,310.006 586.59,310.006L606.822,310.006C607.685,310.006 608.468,310.356 609.169,311.058C609.87,311.759 610.221,312.541 610.221,313.405C610.221,313.836 610.113,314.322 609.897,314.861L576.878,418.45C576.555,419.745 575.853,420.878 574.774,421.849C573.695,422.82 572.185,423.306 570.242,423.306L545.478,423.306Z" style="fill:url(#_Linear18);fill-rule:nonzero;"/>
            <path d="M694.063,433.826C692.337,433.826 691.015,433.368 690.097,432.451C689.18,431.534 688.452,430.751 687.912,430.104L682.409,422.82C678.201,424.223 673.399,424.924 668.004,424.924C658.077,424.924 649.471,423.306 642.188,420.069C634.904,416.831 629.185,411.949 625.031,405.421C620.877,398.892 618.638,390.719 618.314,380.899C618.206,376.259 618.152,371.592 618.152,366.899C618.152,362.205 618.206,357.538 618.314,352.898C618.638,343.186 620.904,335.013 625.112,328.377C629.32,321.74 635.093,316.75 642.431,313.405C649.768,310.06 658.293,308.387 668.004,308.387C677.823,308.387 686.402,310.06 693.739,313.405C701.077,316.75 706.877,321.74 711.139,328.377C715.401,335.013 717.64,343.186 717.856,352.898C718.072,357.538 718.18,362.205 718.18,366.899C718.18,371.592 718.072,376.259 717.856,380.899C717.316,394.279 713.432,404.638 706.202,411.976L718.018,428.809C718.126,428.917 718.234,429.133 718.342,429.456C718.449,429.78 718.503,430.104 718.503,430.427C718.611,431.291 718.342,432.073 717.694,432.774C717.047,433.476 716.237,433.826 715.266,433.826L694.063,433.826ZM668.004,401.617C673.723,401.617 678.39,399.89 682.005,396.437C685.619,392.985 687.535,387.481 687.751,379.928C687.966,375.18 688.074,370.702 688.074,366.494C688.074,362.286 687.966,357.915 687.751,353.383C687.643,348.312 686.725,344.185 684.999,341.001C683.273,337.818 680.98,335.471 678.12,333.961C675.261,332.45 671.889,331.695 668.004,331.695C664.335,331.695 661.044,332.45 658.131,333.961C655.217,335.471 652.924,337.818 651.252,341.001C649.579,344.185 648.635,348.312 648.419,353.383C648.311,357.915 648.257,362.286 648.257,366.494C648.257,370.702 648.311,375.18 648.419,379.928C648.743,387.481 650.685,392.985 654.246,396.437C657.807,399.89 662.393,401.617 668.004,401.617Z" style="fill:url(#_Linear19);fill-rule:nonzero;"/>
            <path d="M741.163,423.306C739.976,423.306 739.005,422.901 738.25,422.092C737.495,421.283 737.117,420.338 737.117,419.259L737.117,314.052C737.117,312.865 737.495,311.894 738.25,311.139C739.005,310.383 739.976,310.006 741.163,310.006L762.529,310.006C763.716,310.006 764.687,310.383 765.442,311.139C766.197,311.894 766.575,312.865 766.575,314.052L766.575,398.865L815.618,398.865C816.805,398.865 817.776,399.27 818.531,400.079C819.287,400.889 819.664,401.887 819.664,403.074L819.664,419.259C819.664,420.338 819.287,421.283 818.531,422.092C817.776,422.901 816.805,423.306 815.618,423.306L741.163,423.306Z" style="fill:url(#_Linear20);fill-rule:nonzero;"/>
        </g>
    </g>
    <defs>
        <linearGradient id="_Linear1" x1="0" y1="0" x2="1" y2="0" gradientUnits="userSpaceOnUse" gradientTransform="matrix(-40.5533,323.782,323.782,40.5533,97.0777,-0.675882)"><stop offset="0" style="stop-color:rgb(70,202,255);stop-opacity:1"/><stop offset="0.5" style="stop-color:rgb(146,106,254);stop-opacity:1"/><stop offset="1" style="stop-color:rgb(189,52,254);stop-opacity:1"/></linearGradient>
        <linearGradient id="_Linear2" x1="0" y1="0" x2="1" y2="0" gradientUnits="userSpaceOnUse" gradientTransform="matrix(197.01,-260.118,-260.118,-197.01,78.9124,315.36)"><stop offset="0" style="stop-color:rgb(70,202,255);stop-opacity:1"/><stop offset="0.5" style="stop-color:rgb(146,106,254);stop-opacity:1"/><stop offset="1" style="stop-color:rgb(189,52,254);stop-opacity:1"/></linearGradient>
        <linearGradient id="_Linear3" x1="0" y1="0" x2="1" y2="0" gradientUnits="userSpaceOnUse" gradientTransform="matrix(-40.5533,323.782,323.782,40.5533,177.598,299.286)"><stop offset="0" style="stop-color:rgb(70,202,255);stop-opacity:1"/><stop offset="0.5" style="stop-color:rgb(146,106,254);stop-opacity:1"/><stop offset="1" style="stop-color:rgb(189,52,254);stop-opacity:1"/></linearGradient>
        <linearGradient id="_Linear4" x1="0" y1="0" x2="1" y2="0" gradientUnits="userSpaceOnUse" gradientTransform="matrix(-40.5533,323.782,323.782,40.5533,316.784,-220.188)"><stop offset="0" style="stop-color:rgb(70,202,255);stop-opacity:1"/><stop offset="0.5" style="stop-color:rgb(146,106,254);stop-opacity:1"/><stop offset="1" style="stop-color:rgb(189,52,254);stop-opacity:1"/></linearGradient>
        <linearGradient id="_Linear5" x1="0" y1="0" x2="1" y2="0" gradientUnits="userSpaceOnUse" gradientTransform="matrix(126.763,300.683,300.683,-126.763,-48.1472,-83.0849)"><stop offset="0" style="stop-color:rgb(70,202,255);stop-opacity:1"/><stop offset="0.5" style="stop-color:rgb(146,106,254);stop-opacity:1"/><stop offset="1" style="stop-color:rgb(189,52,254);stop-opacity:1"/></linearGradient>
        <linearGradient id="_Linear6" x1="0" y1="0" x2="1" y2="0" gradientUnits="userSpaceOnUse" gradientTransform="matrix(126.763,300.683,300.683,-126.763,230.438,-83.085)"><stop offset="0" style="stop-color:rgb(70,202,255);stop-opacity:1"/><stop offset="0.5" style="stop-color:rgb(146,106,254);stop-opacity:1"/><stop offset="1" style="stop-color:rgb(189,52,254);stop-opacity:1"/></linearGradient>
        <linearGradient id="_Linear7" x1="0" y1="0" x2="1" y2="0" gradientUnits="userSpaceOnUse" gradientTransform="matrix(197.01,-260.118,-260.118,-197.01,78.9124,315.36)"><stop offset="0" style="stop-color:rgb(70,202,255);stop-opacity:1"/><stop offset="0.5" style="stop-color:rgb(146,106,254);stop-opacity:1"/><stop offset="1" style="stop-color:rgb(189,52,254);stop-opacity:1"/></linearGradient>
        <linearGradient id="_Linear8" x1="0" y1="0" x2="1" y2="0" gradientUnits="userSpaceOnUse" gradientTransform="matrix(197.01,-260.118,-260.118,-197.01,78.9124,315.36)"><stop offset="0" style="stop-color:rgb(70,202,255);stop-opacity:1"/><stop offset="0.5" style="stop-color:rgb(146,106,254);stop-opacity:1"/><stop offset="1" style="stop-color:rgb(189,52,254);stop-opacity:1"/></linearGradient>
        <linearGradient id="_Linear9" x1="0" y1="0" x2="1" y2="0" gradientUnits="userSpaceOnUse" gradientTransform="matrix(126.763,300.683,300.683,-126.763,369.429,158.004)"><stop offset="0" style="stop-color:rgb(70,202,255);stop-opacity:1"/><stop offset="0.5" style="stop-color:rgb(146,106,254);stop-opacity:1"/><stop offset="1" style="stop-color:rgb(189,52,254);stop-opacity:1"/></linearGradient>
        <linearGradient id="_Linear10" x1="0" y1="0" x2="1" y2="0" gradientUnits="userSpaceOnUse" gradientTransform="matrix(197.01,-260.118,-260.118,-197.01,78.9124,315.36)"><stop offset="0" style="stop-color:rgb(70,202,255);stop-opacity:1"/><stop offset="0.5" style="stop-color:rgb(146,106,254);stop-opacity:1"/><stop offset="1" style="stop-color:rgb(189,52,254);stop-opacity:1"/></linearGradient>
        <linearGradient id="_Linear11" x1="0" y1="0" x2="1" y2="0" gradientUnits="userSpaceOnUse" gradientTransform="matrix(197.01,-260.118,-260.118,-197.01,78.9124,315.36)"><stop offset="0" style="stop-color:rgb(70,202,255);stop-opacity:1"/><stop offset="0.5" style="stop-color:rgb(146,106,254);stop-opacity:1"/><stop offset="1" style="stop-color:rgb(189,52,254);stop-opacity:1"/></linearGradient>
        <linearGradient id="_Linear12" x1="0" y1="0" x2="1" y2="0" gradientUnits="userSpaceOnUse" gradientTransform="matrix(197.01,-260.118,-260.118,-197.01,78.9124,315.36)"><stop offset="0" style="stop-color:rgb(70,202,255);stop-opacity:1"/><stop offset="0.5" style="stop-color:rgb(146,106,254);stop-opacity:1"/><stop offset="1" style="stop-color:rgb(189,52,254);stop-opacity:1"/></linearGradient>
        <linearGradient id="_Linear13" x1="0" y1="0" x2="1" y2="0" gradientUnits="userSpaceOnUse" gradientTransform="matrix(197.01,-260.118,-260.118,-197.01,78.9124,315.36)"><stop offset="0" style="stop-color:rgb(70,202,255);stop-opacity:1"/><stop offset="0.5" style="stop-color:rgb(146,106,254);stop-opacity:1"/><stop offset="1" style="stop-color:rgb(189,52,254);stop-opacity:1"/></linearGradient>
        <linearGradient id="_Linear14" x1="0" y1="0" x2="1" y2="0" gradientUnits="userSpaceOnUse" gradientTransform="matrix(197.01,-260.118,-260.118,-197.01,78.9124,315.36)"><stop offset="0" style="stop-color:rgb(70,202,255);stop-opacity:1"/><stop offset="0.5" style="stop-color:rgb(146,106,254);stop-opacity:1"/><stop offset="1" style="stop-color:rgb(189,52,254);stop-opacity:1"/></linearGradient>
        <linearGradient id="_Linear15" x1="0" y1="0" x2="1" y2="0" gradientUnits="userSpaceOnUse" gradientTransform="matrix(197.01,-260.118,-260.118,-197.01,78.9124,315.36)"><stop offset="0" style="stop-color:rgb(70,202,255);stop-opacity:1"/><stop offset="0.5" style="stop-color:rgb(146,106,254);stop-opacity:1"/><stop offset="1" style="stop-color:rgb(189,52,254);stop-opacity:1"/></linearGradient>
        <linearGradient id="_Linear16" x1="0" y1="0" x2="1" y2="0" gradientUnits="userSpaceOnUse" gradientTransform="matrix(308.544,407.38,-407.38,308.544,15.4511,-13.7158)"><stop offset="0" style="stop-color:rgb(70,202,255);stop-opacity:1"/><stop offset="0.5" style="stop-color:rgb(146,106,254);stop-opacity:1"/><stop offset="1" style="stop-color:rgb(189,52,254);stop-opacity:1"/></linearGradient>
        <linearGradient id="_Linear17" x1="0" y1="0" x2="1" y2="0" gradientUnits="userSpaceOnUse" gradientTransform="matrix(41.425,284.171,-284.171,41.425,194.651,8.81818)"><stop offset="0" style="stop-color:rgb(255,234,131);stop-opacity:1"/><stop offset="0.08" style="stop-color:rgb(255,221,53);stop-opacity:1"/><stop offset="1" style="stop-color:rgb(255,168,0);stop-opacity:1"/></linearGradient>
        <linearGradient id="_Linear18" x1="0" y1="0" x2="1" y2="0" gradientUnits="userSpaceOnUse" gradientTransform="matrix(86.3538,122.174,-122.174,86.3538,549.551,317.844)"><stop offset="0" style="stop-color:rgb(72,200,255);stop-opacity:1"/><stop offset="0.5" style="stop-color:rgb(141,113,254);stop-opacity:1"/><stop offset="1" style="stop-color:rgb(189,52,254);stop-opacity:1"/></linearGradient>
        <linearGradient id="_Linear19" x1="0" y1="0" x2="1" y2="0" gradientUnits="userSpaceOnUse" gradientTransform="matrix(86.3538,122.174,-122.174,86.3538,549.551,317.844)"><stop offset="0" style="stop-color:rgb(72,200,255);stop-opacity:1"/><stop offset="0.5" style="stop-color:rgb(141,113,254);stop-opacity:1"/><stop offset="1" style="stop-color:rgb(189,52,254);stop-opacity:1"/></linearGradient>
        <linearGradient id="_Linear20" x1="0" y1="0" x2="1" y2="0" gradientUnits="userSpaceOnUse" gradientTransform="matrix(86.3538,122.174,-122.174,86.3538,549.551,317.844)"><stop offset="0" style="stop-color:rgb(72,200,255);stop-opacity:1"/><stop offset="0.5" style="stop-color:rgb(141,113,254);stop-opacity:1"/><stop offset="1" style="stop-color:rgb(189,52,254);stop-opacity:1"/></linearGradient>
    </defs>
</svg>
